<svg width="1440" height="960" viewBox="0 0 1440 960" fill="none" xmlns="http://www.w3.org/2000/svg">
  <defs>
    <linearGradient id="bg" x1="0" y1="0" x2="1440" y2="960" gradientUnits="userSpaceOnUse">
      <stop stop-color="#f4f0e7"/>
      <stop offset="0.52" stop-color="#edf1ec"/>
      <stop offset="1" stop-color="#e2ebe6"/>
    </linearGradient>
    <linearGradient id="hero" x1="136" y1="112" x2="1304" y2="308" gradientUnits="userSpaceOnUse">
      <stop stop-color="#14352f"/>
      <stop offset="1" stop-color="#25564b"/>
    </linearGradient>
    <filter id="softShadow" x="-20%" y="-20%" width="140%" height="140%">
      <feDropShadow dx="0" dy="18" stdDeviation="24" flood-color="#20312e" flood-opacity="0.13"/>
    </filter>
    <pattern id="paper" width="34" height="34" patternUnits="userSpaceOnUse">
      <path d="M34 0H0V34" stroke="#d8ddd5" stroke-width="0.7" opacity="0.35"/>
    </pattern>
  </defs>

  <rect width="1440" height="960" fill="url(#bg)"/>
  <rect width="1440" height="960" fill="url(#paper)" opacity="0.45"/>

  <rect x="72" y="56" width="1296" height="848" rx="22" fill="#fbfaf6" filter="url(#softShadow)"/>
  <rect x="72.5" y="56.5" width="1295" height="847" rx="21.5" stroke="#d7ddd4"/>

  <rect x="72" y="56" width="1296" height="72" rx="22" fill="#ffffff"/>
  <path d="M72 106H1368" stroke="#e4e7e1"/>
  <circle cx="118" cy="92" r="18" fill="#173d35"/>
  <path d="M110 93C116 82 124 82 130 93C124 90 116 90 110 93Z" fill="#d9c88f"/>
  <path d="M113 99H127" stroke="#d9c88f" stroke-width="2" stroke-linecap="round"/>
  <text x="150" y="88" fill="#1d2d2a" font-family="Georgia, serif" font-size="23" font-weight="700">Arkham Research Library</text>
  <text x="150" y="111" fill="#74807a" font-family="Arial, sans-serif" font-size="13">Departamento de Estudos Comparados e Arquivos Raros</text>

  <text x="632" y="98" fill="#53615b" font-family="Arial, sans-serif" font-size="14">Acervo</text>
  <text x="714" y="98" fill="#53615b" font-family="Arial, sans-serif" font-size="14">Pesquisa</text>
  <text x="813" y="98" fill="#173d35" font-family="Arial, sans-serif" font-size="14" font-weight="700">Oraculo</text>
  <text x="902" y="98" fill="#53615b" font-family="Arial, sans-serif" font-size="14">Cadernos</text>

  <rect x="1150" y="76" width="160" height="34" rx="17" fill="#eef3ef"/>
  <circle cx="1173" cy="93" r="8" fill="#2e6658"/>
  <text x="1192" y="98" fill="#2a403b" font-family="Arial, sans-serif" font-size="13">Guilherme</text>

  <rect x="136" y="160" width="1168" height="184" rx="18" fill="url(#hero)"/>
  <path d="M1136 160C1182 196 1218 240 1242 292" stroke="#d9c88f" stroke-opacity="0.26" stroke-width="1.5"/>
  <path d="M1088 344C1130 282 1196 235 1304 210" stroke="#d9c88f" stroke-opacity="0.18" stroke-width="1.5"/>
  <circle cx="1208" cy="252" r="72" stroke="#d9c88f" stroke-opacity="0.1" stroke-width="1.5"/>
  <text x="184" y="214" fill="#d9c88f" font-family="Arial, sans-serif" font-size="12" font-weight="700" letter-spacing="2">CONSULTA ASSISTIDA</text>
  <text x="184" y="260" fill="#fffdf6" font-family="Georgia, serif" font-size="42" font-weight="700">Oraculo Cosmico</text>
  <text x="184" y="294" fill="#dbe7df" font-family="Arial, sans-serif" font-size="17">Uma mesa de pesquisa privada para explorar mitos, documentos e memorias de investigacao.</text>
  <rect x="184" y="312" width="174" height="38" rx="19" fill="#d9c88f"/>
  <text x="214" y="337" fill="#173d35" font-family="Arial, sans-serif" font-size="14" font-weight="700">Iniciar consulta</text>

  <rect x="136" y="384" width="278" height="448" rx="16" fill="#f3f0e8" stroke="#e0ded4"/>
  <text x="166" y="424" fill="#1d2d2a" font-family="Arial, sans-serif" font-size="13" font-weight="700" letter-spacing="1.4">INDICE</text>
  <rect x="166" y="454" width="218" height="46" rx="10" fill="#173d35"/>
  <text x="190" y="483" fill="#f9f7ef" font-family="Arial, sans-serif" font-size="15">Consulta do Oraculo</text>
  <rect x="166" y="514" width="218" height="46" rx="10" fill="#ffffff"/>
  <text x="190" y="543" fill="#4d5a55" font-family="Arial, sans-serif" font-size="15">Arquivos raros</text>
  <rect x="166" y="574" width="218" height="46" rx="10" fill="#ffffff"/>
  <text x="190" y="603" fill="#4d5a55" font-family="Arial, sans-serif" font-size="15">Notas do pesquisador</text>
  <rect x="166" y="634" width="218" height="46" rx="10" fill="#ffffff"/>
  <text x="190" y="663" fill="#4d5a55" font-family="Arial, sans-serif" font-size="15">Linha de investigacao</text>

  <rect x="166" y="722" width="218" height="74" rx="12" fill="#fffdf7" stroke="#e0ded4"/>
  <text x="188" y="750" fill="#718078" font-family="Arial, sans-serif" font-size="12">Bem-estar cognitivo</text>
  <text x="188" y="777" fill="#173d35" font-family="Arial, sans-serif" font-size="25" font-weight="700">100%</text>
  <rect x="264" y="763" width="92" height="8" rx="4" fill="#e5e6df"/>
  <rect x="264" y="763" width="92" height="8" rx="4" fill="#2e6658"/>

  <rect x="446" y="384" width="858" height="448" rx="16" fill="#ffffff" stroke="#e0e5de"/>
  <rect x="446" y="384" width="858" height="64" rx="16" fill="#fbfaf6"/>
  <path d="M446 448H1304" stroke="#e4e7e1"/>
  <text x="480" y="424" fill="#1d2d2a" font-family="Arial, sans-serif" font-size="18" font-weight="700">Sala de consulta</text>
  <text x="480" y="440" fill="#77847e" font-family="Arial, sans-serif" font-size="12">Sessao privada - entidade comunicadora nao revelada</text>
  <rect x="1142" y="404" width="126" height="26" rx="13" fill="#eef3ef"/>
  <circle cx="1161" cy="417" r="5" fill="#2e6658"/>
  <text x="1174" y="421" fill="#40504b" font-family="Arial, sans-serif" font-size="12">estavel</text>

  <rect x="480" y="478" width="514" height="82" rx="14" fill="#f5f3ec"/>
  <text x="506" y="506" fill="#2b3936" font-family="Arial, sans-serif" font-size="14" font-weight="700">Oraculo</text>
  <text x="506" y="535" fill="#43514c" font-family="Arial, sans-serif" font-size="15">Bem-vindo, pesquisador. Qual fragmento do acervo deseja examinar?</text>

  <rect x="724" y="590" width="544" height="70" rx="14" fill="#173d35"/>
  <text x="752" y="619" fill="#d9c88f" font-family="Arial, sans-serif" font-size="14" font-weight="700">Guilherme</text>
  <text x="752" y="646" fill="#f7f4ea" font-family="Arial, sans-serif" font-size="15">Quero entender os registros sobre sonhos recorrentes em Arkham.</text>

  <rect x="480" y="690" width="602" height="78" rx="14" fill="#f5f3ec"/>
  <text x="506" y="718" fill="#2b3936" font-family="Arial, sans-serif" font-size="14" font-weight="700">Oraculo</text>
  <text x="506" y="746" fill="#43514c" font-family="Arial, sans-serif" font-size="15">Ha referencias dispersas. Recomendo comecar pelos diarios da ala norte.</text>

  <rect x="480" y="788" width="788" height="40" rx="20" fill="#f4f6f2" stroke="#dfe5dd"/>
  <text x="508" y="813" fill="#87918c" font-family="Arial, sans-serif" font-size="14">Digite sua pergunta para o acervo...</text>
  <rect x="1132" y="793" width="126" height="30" rx="15" fill="#d9c88f"/>
  <text x="1167" y="813" fill="#173d35" font-family="Arial, sans-serif" font-size="13" font-weight="700">Invocar</text>

  <rect x="1036" y="478" width="232" height="82" rx="14" fill="#fbfaf6" stroke="#e3e2d9"/>
  <text x="1062" y="508" fill="#75827c" font-family="Arial, sans-serif" font-size="12">ENTIDADE</text>
  <text x="1062" y="535" fill="#1d2d2a" font-family="Georgia, serif" font-size="20">Nao identificada</text>

  <rect x="1108" y="690" width="160" height="78" rx="14" fill="#fbfaf6" stroke="#e3e2d9"/>
  <text x="1132" y="720" fill="#75827c" font-family="Arial, sans-serif" font-size="12">TOM</text>
  <text x="1132" y="747" fill="#1d2d2a" font-family="Georgia, serif" font-size="20">Academico</text>

  <text x="136" y="876" fill="#7f8b85" font-family="Arial, sans-serif" font-size="13">Direcao visual: universidade de Arkham moderna, discreta, confiavel, com misterio apenas sugerido.</text>
</svg>
